<svg fill="#999999" width="256px" height="256px" viewBox="0 0 24.00 24.00" xmlns="http://www.w3.org/2000/svg" stroke="#999999" stroke-width="0.00024000000000000003"><g id="SVGRepo_bgCarrier" stroke-width="0"></g><g id="SVGRepo_tracerCarrier" stroke-linecap="round" stroke-linejoin="round"></g><g id="SVGRepo_iconCarrier"><path d="M5,22H19a3,3,0,0,0,3-3V9a3,3,0,0,0-3-3H17V4a2,2,0,0,0-2-2H9A2,2,0,0,0,7,4V6H5A3,3,0,0,0,2,9V19A3,3,0,0,0,5,22ZM9,4h6V6H9ZM4,9A1,1,0,0,1,5,8H19a1,1,0,0,1,1,1V19a1,1,0,0,1-1,1H5a1,1,0,0,1-1-1Z"></path></g></svg>